<svg fill="none" height="256" stroke-linecap="round" stroke-linejoin="round" stroke-width="24" viewBox="-128 -128 256 256" width="256" xmlns="http://www.w3.org/2000/svg"><circle cx="0" cy="0" fill="#2F4179" r="128" stroke="none"></circle><g><defs><clipPath id="scicloj-tilted-clip"><circle r="128.0"></circle></clipPath></defs><g clip-path="url(#scicloj-tilted-clip)" fill="none" stroke-linecap="round" stroke-width="48"><path d="M -128.0,0 A 128.0 128.0 0 0 0 0,128.0" stroke="#62B132"></path><path d="M 128.0,0 A 128.0 128.0 0 0 0 0,-128.0" stroke="#5881D8"></path></g></g><g id="scicloj" transform="scale(0.7) translate(-189.25,-160)"><g fill="none" stroke="#8FB5FE" stroke-linecap="round" stroke-linejoin="round" stroke-width="14"><line x1="189.26" x2="129.89" y1="62.71" y2="84.34"></line><line x1="189.26" x2="178.46" y1="62.71" y2="116.77"></line><line x1="129.89" x2="178.46" y1="84.34" y2="116.77"></line><line x1="178.46" x2="248.63" y1="116.77" y2="84.34"></line><line x1="178.46" x2="159.57" y1="116.77" y2="173.52"></line><line x1="248.63" x2="221.64" y1="84.34" y2="154.6"></line><line x1="97.5" x2="113.7" y1="143.79" y2="208.66"></line><line x1="159.57" x2="97.5" y1="173.52" y2="143.79"></line><line x1="159.57" x2="113.7" y1="173.52" y2="208.66"></line><line x1="159.57" x2="191.96" y1="173.52" y2="211.36"></line><line x1="221.64" x2="191.96" y1="154.6" y2="211.36"></line><line x1="221.64" x2="281.02" y1="154.6" y2="143.79"></line><line x1="221.64" x2="264.82" y1="154.6" y2="208.66"></line><line x1="191.96" x2="221.64" y1="211.36" y2="257.3"></line><line x1="191.96" x2="156.88" y1="211.36" y2="257.3"></line><line x1="281.02" x2="264.82" y1="143.79" y2="208.66"></line><line x1="156.88" x2="221.64" y1="257.3" y2="257.3"></line></g><g fill="#91DC47"><circle cx="189.26" cy="62.71" r="20"></circle><circle cx="129.89" cy="84.34" r="20"></circle><circle cx="178.46" cy="116.77" r="20"></circle><circle cx="248.63" cy="84.34" r="20"></circle><circle cx="97.5" cy="143.79" r="20"></circle><circle cx="159.57" cy="173.52" r="20"></circle><circle cx="221.64" cy="154.6" r="20"></circle><circle cx="113.7" cy="208.66" r="20"></circle><circle cx="191.96" cy="211.36" r="20"></circle><circle cx="281.02" cy="143.79" r="20"></circle><circle cx="264.82" cy="208.66" r="20"></circle><circle cx="156.88" cy="257.3" r="20"></circle><circle cx="221.64" cy="257.3" r="20"></circle></g></g></svg>